# xmcd CD database file generated by OrangeCD 6.4
#
# Track frame offsets:
#	150
#	24237
#	38190
#	49250
#	69260
#	96015
#	113684
#	139235
#	160423
#	186239
#	201961
#
# Disc length: 2986 seconds
#
# Revision: 2
# Processed by: cddbd v1.5.2PL0 Copyright (c) Steve Scherf et al.
# Submitted via: OrangeCD 6.4
#
DISCID=940ba80b
DTITLE=Various Artist - Cuba Time
DYEAR=2002
DGENRE=Other
TTITLE0=Los Van Van - Rompiendo La Rutina
TTITLE1=Omara Portuondo y Orquestra Aragon - Y Solo Tu y Yo
TTITLE2=Ibrahim Ferrer y Los Bocucos - Mi Oriente
TTITLE3=Ruben Gonzalez y Cubason - Cantando En El Areito
TTITLE4=Grupo Clave - Palenque
TTITLE5=Jacqueline Castellanos - Me Quede Con Ganas
TTITLE6=Fiedel Morales y El Grupo Laye - Se Me Subio El Voltaje
TTITLE7=Alina Izquierdo y Grupo Clave - Summer Time
TTITLE8=Original De Manzanillo - Candito No Seas Travieso
TTITLE9=Omara Portuondo - La Rosa Oriental
TTITLE10=Paulo y Su Elite - La Captura
EXTD=
EXTT0=
EXTT1=
EXTT2=
EXTT3=
EXTT4=
EXTT5=
EXTT6=
EXTT7=
EXTT8=
EXTT9=
EXTT10=
PLAYORDER=
